PathFileType	4	(X/Y/Z)	c:/Users/goper/Files/vsCode/490R/osim_files/C08/C08_Slow_02.trc
DataRate	CameraRate	NumFrames	NumMarkers	Units                	OrigDataRate	OrigDataStartFrame	OrigNumFrames
250.00	250.00	4	36	mm	250.0	1327	2652
                Frame#	Time	LPSIS			LASIS			LTH1			LTH2			LTH3			LTH4			LLFE			LMFE			LSH1			LSH2			LSH3			LSH4			LLMAL			LMMAL			LCAL			LMTP5			LTOE			LMTP1			RPSIS			RASIS			RTH1			RTH2			RTH3			RTH4			RLFE			RMFE			RSH1			RSH2			RSH3			RSH4			RLMAL			RMMAL			RCAL			RMTP1			RTOE			RMTP5		
		X1	Y1	Z1	X2	Y2	Z2	X3	Y3	Z3	X4	Y4	Z4	X5	Y5	Z5	X6	Y6	Z6	X7	Y7	Z7	X8	Y8	Z8	X9	Y9	Z9	X10	Y10	Z10	X11	Y11	Z11	X12	Y12	Z12	X13	Y13	Z13	X14	Y14	Z14	X15	Y15	Z15	X16	Y16	Z16	X17	Y17	Z17	X18	Y18	Z18	X19	Y19	Z19	X20	Y20	Z20	X21	Y21	Z21	X22	Y22	Z22	X23	Y23	Z23	X24	Y24	Z24	X25	Y25	Z25	X26	Y26	Z26	X27	Y27	Z27	X28	Y28	Z28	X29	Y29	Z29	X30	Y30	Z30	X31	Y31	Z31	X32	Y32	Z32	X33	Y33	Z33	X34	Y34	Z34	X35	Y35	Z35	X36	Y36	Z36

1327	5.30400	-86.60116	1052.11951	194.11813	-293.62021	1015.79156	275.56186	-292.54245	752.98730	368.12152	-324.04196	679.93213	357.45486	-352.29401	611.47180	351.88071	-394.01758	714.76825	338.57184	-364.52942	565.18994	345.09204	-386.68961	552.85889	218.41991	-288.36905	463.60446	348.64847	-281.76541	416.64954	351.59305	-347.78091	450.77579	360.73981	-332.90591	407.36691	360.11456	-228.78781	145.53001	312.51828	-267.77618	144.08513	231.51300	-171.56514	133.43073	247.59006	-320.01718	61.67453	362.71091	-391.14676	73.34070	314.78448	-363.98691	56.05843	253.17526	-87.97595	1051.26343	134.00238	-282.01703	1013.43964	38.88356	-199.65128	749.86188	-8.85973	-192.24353	672.88708	11.98475	-182.37685	594.57080	25.49685	-265.77783	672.06580	40.39488	-177.60341	523.16541	43.88866	-172.79359	521.06403	166.79919	-112.57130	444.92654	28.82811	-113.63020	400.06210	26.43954	-173.57263	438.86646	38.82370	-166.25381	394.48492	35.45118	-71.02041	105.34409	95.61851	-102.52396	107.32220	183.33867	-12.48130	82.34795	167.41956	-224.50470	42.17141	166.06886	-242.30336	58.94706	112.45025	-187.09047	44.15942	53.67982
1328	5.30800	-90.47504	1051.76794	194.38731	-297.60886	1015.18945	275.71393	-296.74417	752.78998	367.64825	-328.55255	679.75903	356.87671	-356.85794	611.36481	351.15436	-398.32953	714.77368	337.70245	-369.59583	565.10626	344.45328	-391.12210	552.69800	217.64713	-293.92508	462.13962	348.45309	-289.13278	414.78384	351.47888	-354.45273	450.12704	360.45605	-340.81314	406.24734	359.76907	-241.77901	142.39093	313.08804	-280.78754	141.40660	232.06021	-184.64520	128.86935	248.25043	-335.00549	60.53750	363.31552	-405.80908	73.55412	315.21671	-379.44556	55.22076	254.81976	-91.73277	1050.97168	134.30762	-286.12534	1013.03979	38.56758	-202.27092	749.79761	-8.78840	-194.64996	672.76837	12.01177	-184.48970	594.54034	25.52598	-268.20392	671.69507	40.43954	-179.34512	523.07452	43.92357	-174.57927	521.02911	166.66634	-113.98665	445.08780	28.91384	-114.81533	400.24179	26.49230	-174.96117	438.83020	38.83885	-167.44528	394.45538	35.44143	-71.26494	105.61250	95.65295	-102.77447	107.56741	183.34557	-12.58528	82.72132	167.43451	-224.59950	42.15264	166.04610	-242.45967	58.84216	112.43054	-187.11958	44.11813	53.66558
1329	5.31200	-94.29391	1051.41846	194.62433	-301.53156	1014.52942	275.82019	-300.88553	752.47491	367.12582	-332.90936	679.49902	356.34940	-361.24286	611.19086	350.43292	-402.83600	714.79657	337.32153	-374.18484	564.92853	343.69485	-395.66086	552.43329	216.99304	-300.93219	459.97827	348.68634	-296.45160	412.64563	351.47971	-361.04007	449.42963	360.17978	-348.38651	405.23553	359.59079	-254.79367	139.35420	313.70993	-293.83432	138.85347	232.61522	-198.08217	124.31094	249.24136	-350.11856	59.49755	363.88837	-420.43201	73.93003	315.63599	-394.89337	54.45846	256.65536	-95.42216	1050.62317	134.55913	-290.00073	1012.71478	38.40922	-204.89368	749.66913	-8.63963	-197.09195	672.66907	12.00910	-186.65019	594.41986	25.51202	-270.66882	671.34338	40.49991	-181.06604	522.99023	43.91798	-176.27116	521.06525	166.73917	-115.29143	445.36530	28.98169	-116.02169	400.44662	26.52290	-176.34021	438.79099	38.83770	-168.61913	394.45233	35.40402	-71.49565	105.88577	95.69271	-103.01509	107.82146	183.33212	-12.72040	83.12144	167.42419	-224.63377	42.11744	166.02562	-242.53610	58.76278	112.37304	-187.14978	44.08213	53.63785
1330	5.31600	-98.13483	1051.02576	194.89000	-305.50958	1013.86041	275.97025	-305.98654	751.94086	367.36871	-337.08456	679.20276	355.75366	-365.50476	610.91876	349.74722	-406.71689	714.52667	336.02213	-378.65598	564.70959	342.98550	-399.86990	552.14966	216.21887	-307.12866	457.97971	348.58444	-303.75848	410.52103	351.47641	-367.51392	448.73022	359.90485	-355.85831	404.28647	359.44330	-268.57468	135.68886	314.20355	-306.80670	136.40620	233.17517	-211.09485	120.37003	250.64542	-365.14954	58.59948	364.41962	-435.12033	74.38542	315.97388	-410.32050	53.77672	258.69315	-99.15926	1050.29883	134.85730	-293.55383	1012.24347	38.33341	-207.43655	749.57892	-8.47590	-199.57497	672.53888	12.02613	-188.80396	594.39612	25.51482	-273.09299	670.97571	40.54520	-182.88477	522.91907	43.93351	-178.01166	521.13110	166.73416	-116.69137	445.57550	29.00600	-117.24083	400.64221	26.55147	-177.66844	438.66675	39.09757	-169.91331	394.45352	35.42212	-71.74800	106.15182	95.69590	-103.22213	108.07330	183.32162	-12.85126	83.53976	167.41272	-225.16689	42.23890	165.92950	-242.62912	58.71747	112.28124	-187.03531	44.15533	53.55805
